<svg width="20" height="15" viewBox="0 0 16 12" fill="none" xmlns="http://www.w3.org/2000/svg">
<mask id="mask0_1086_6320" style="mask-type:alpha" maskUnits="userSpaceOnUse" x="0" y="0" width="16" height="12">
<rect width="16" height="12" fill="white"/>
</mask>
<g mask="url(#mask0_1086_6320)">
<path fill-rule="evenodd" clip-rule="evenodd" d="M0 0H16V12H0V0Z" fill="#2E42A5"/>
<mask id="mask1_1086_6320" style="mask-type:alpha" maskUnits="userSpaceOnUse" x="0" y="0" width="9" height="7">
<rect width="9" height="6.75" fill="white"/>
</mask>
<g mask="url(#mask1_1086_6320)">
<path fill-rule="evenodd" clip-rule="evenodd" d="M0 0V6.75H9V0H0Z" fill="#2E42A5"/>
<mask id="mask2_1086_6320" style="mask-type:alpha" maskUnits="userSpaceOnUse" x="0" y="0" width="9" height="7">
<path fill-rule="evenodd" clip-rule="evenodd" d="M0 0V6.75H9V0H0Z" fill="white"/>
</mask>
<g mask="url(#mask2_1086_6320)">
<mask id="mask3_1086_6320" style="mask-type:alpha" maskUnits="userSpaceOnUse" x="0" y="0" width="9" height="7">
<rect width="9" height="6.75" fill="white"/>
</mask>
<g mask="url(#mask3_1086_6320)">
<path d="M-0.720825 6.26777L0.69715 7.10535L4.07821 4.35937L5.0117 4.00799L9.045 0.910641L10.0897 -0.334026L8.53432 -0.61397L5.24415 2.05551L2.31465 3.85411L-0.720825 6.26777Z" fill="white"/>
<path d="M-0.140625 6.85452L-0.00332648 7.34058L4.71493 3.44541L5.48438 2.81242L9.43318 -0.449751H8.71875L4.20436 3.20238L3.82479 3.65617L-0.140625 6.85452Z" fill="#E40046"/>
<path d="M9.72095 6.26777L8.58422 7.10535L4.4103 4.00799L-0.0448761 0.910641L-1.08953 -0.334026L0.465801 -0.61397L3.75597 2.05551L6.68548 3.85411L9.72095 6.26777Z" fill="white"/>
<path d="M9.65332 6.68887L9.42189 7.17493L7.4128 5.5072L5.40372 3.83948L3.71615 3.46682L-1.1901 -0.329827H-0.403481L4.50001 3.37671L6.15131 3.82357L9.65332 6.68887Z" fill="#E40046"/>
<mask id="path-11-inside-1_1086_6320" fill="white">
<path fill-rule="evenodd" clip-rule="evenodd" d="M5.56247 -0.5625H3.43747V2.24996H-0.55481V4.49996H3.43747V7.3125H5.56247V4.49996H9.57019V2.24996H5.56247V-0.5625Z"/>
</mask>
<path fill-rule="evenodd" clip-rule="evenodd" d="M5.56247 -0.5625H3.43747V2.24996H-0.55481V4.49996H3.43747V7.3125H5.56247V4.49996H9.57019V2.24996H5.56247V-0.5625Z" fill="#E40046"/>
<path d="M3.43747 -0.5625V-0.984375H3.01559V-0.5625H3.43747ZM5.56247 -0.5625H5.98434V-0.984375H5.56247V-0.5625ZM3.43747 2.24996V2.67184H3.85934V2.24996H3.43747ZM-0.55481 2.24996V1.82809H-0.976685V2.24996H-0.55481ZM-0.55481 4.49996H-0.976685V4.92184H-0.55481V4.49996ZM3.43747 4.49996H3.85934V4.07809H3.43747V4.49996ZM3.43747 7.3125H3.01559V7.73438H3.43747V7.3125ZM5.56247 7.3125V7.73438H5.98434V7.3125H5.56247ZM5.56247 4.49996V4.07809H5.14059V4.49996H5.56247ZM9.57019 4.49996V4.92184H9.99207V4.49996H9.57019ZM9.57019 2.24996H9.99207V1.82809H9.57019V2.24996ZM5.56247 2.24996H5.14059V2.67184H5.56247V2.24996ZM3.43747 -0.140625H5.56247V-0.984375H3.43747V-0.140625ZM3.85934 2.24996V-0.5625H3.01559V2.24996H3.85934ZM-0.55481 2.67184H3.43747V1.82809H-0.55481V2.67184ZM-0.132935 4.49996V2.24996H-0.976685V4.49996H-0.132935ZM3.43747 4.07809H-0.55481V4.92184H3.43747V4.07809ZM3.85934 7.3125V4.49996H3.01559V7.3125H3.85934ZM5.56247 6.89063H3.43747V7.73438H5.56247V6.89063ZM5.14059 4.49996V7.3125H5.98434V4.49996H5.14059ZM9.57019 4.07809H5.56247V4.92184H9.57019V4.07809ZM9.14832 2.24996V4.49996H9.99207V2.24996H9.14832ZM5.56247 2.67184H9.57019V1.82809H5.56247V2.67184ZM5.14059 -0.5625V2.24996H5.98434V-0.5625H5.14059Z" fill="white" mask="url(#path-11-inside-1_1086_6320)"/>
</g>
</g>
</g>
<g clip-path="url(#clip0_1086_6320)">
<path d="M4.40804 9.83429L3.81761 10.3799L3.87608 9.57811L3.08136 9.4567L3.7447 9.00249L3.34412 8.30545L4.11283 8.54087L4.40804 7.79309L4.70326 8.54087L5.47196 8.30545L5.07138 9.00249L5.73472 9.4567L4.94 9.57811L4.99847 10.3799L4.40804 9.83429Z" fill="#F7FCFF"/>
<path d="M10.776 6.06893L10.3824 6.43269L10.4213 5.89814L9.89152 5.8172L10.3337 5.51439L10.0667 5.0497L10.5792 5.20665L10.776 4.70813L10.9728 5.20665L11.4853 5.0497L11.2182 5.51439L11.6604 5.8172L11.1306 5.89814L11.1696 6.43269L10.776 6.06893Z" fill="#F7FCFF"/>
<path d="M11.7147 2.37667L11.3211 2.74043L11.3601 2.20588L10.8302 2.12494L11.2725 1.82213L11.0054 1.35744L11.5179 1.51439L11.7147 1.01587L11.9115 1.51439L12.424 1.35744L12.1569 1.82213L12.5991 2.12494L12.0693 2.20588L12.1083 2.74043L11.7147 2.37667Z" fill="#F7FCFF"/>
<path d="M14.0614 4.22286L13.6678 4.58662L13.7067 4.05208L13.1769 3.97113L13.6191 3.66833L13.3521 3.20363L13.8646 3.36058L14.0614 2.86206L14.2582 3.36058L14.7707 3.20363L14.5036 3.66833L14.9458 3.97113L14.416 4.05208L14.455 4.58662L14.0614 4.22286Z" fill="#F7FCFF"/>
<path d="M12.1841 9.53048L11.7904 9.89424L11.8294 9.35969L11.2996 9.27875L11.7418 8.97594L11.4748 8.51125L11.9872 8.6682L12.1841 8.16968L12.3809 8.6682L12.8933 8.51125L12.6263 8.97594L13.0685 9.27875L12.5387 9.35969L12.5777 9.89424L12.1841 9.53048Z" fill="#F7FCFF"/>
<path d="M13.8266 6.64792L13.4267 6.85817L13.5031 6.41285L13.1795 6.09746L13.6267 6.03249L13.8266 5.62732L14.0266 6.03249L14.4737 6.09746L14.1502 6.41285L14.2266 6.85817L13.8266 6.64792Z" fill="#F7FCFF"/>
</g>
</g>
<defs>
<clipPath id="clip0_1086_6320">
<rect width="12" height="10" fill="white" transform="translate(3 1)"/>
</clipPath>
</defs>
</svg>
