<svg xmlns="http://www.w3.org/2000/svg" width="20" height="15" viewBox="0 0 16 12" fill="none">
<rect width="16" height="12" fill="#003399"/>
<path fill-rule="evenodd" clip-rule="evenodd" d="M8.23393 2.86695L7.85822 3.125L7.98506 2.66578L7.65137 2.37477H8.08722L8.2334 2L8.40481 2.37477H8.77637L8.48443 2.66578L8.59745 3.125L8.23393 2.86695Z" fill="#FFD801"/>
<path fill-rule="evenodd" clip-rule="evenodd" d="M8.23393 9.60377L7.85822 9.86182L7.98506 9.4026L7.65137 9.11158H8.08722L8.2334 8.73682L8.40481 9.11158H8.77637L8.48443 9.4026L8.59745 9.86182L8.23393 9.60377Z" fill="#FFD801"/>
<path fill-rule="evenodd" clip-rule="evenodd" d="M9.91801 3.2881L9.5423 3.54614L9.66915 3.08693L9.33545 2.79591H9.7713L9.91749 2.42114L10.0889 2.79591H10.4604L10.1685 3.08693L10.2815 3.54614L9.91801 3.2881Z" fill="#FFD801"/>
<path fill-rule="evenodd" clip-rule="evenodd" d="M9.91801 9.18275L9.5423 9.4408L9.66915 8.98158L9.33545 8.69056H9.7713L9.91749 8.3158L10.0889 8.69056H10.4604L10.1685 8.98158L10.2815 9.4408L9.91801 9.18275Z" fill="#FFD801"/>
<path fill-rule="evenodd" clip-rule="evenodd" d="M11.1812 4.55116L10.8055 4.8092L10.9323 4.34999L10.5986 4.05897H11.0345L11.1807 3.6842L11.3521 4.05897H11.7236L11.4317 4.34999L11.5447 4.8092L11.1812 4.55116Z" fill="#FFD801"/>
<path fill-rule="evenodd" clip-rule="evenodd" d="M11.1812 7.91957L10.8055 8.17761L10.9323 7.7184L10.5986 7.42738H11.0345L11.1807 7.05261L11.3521 7.42738H11.7236L11.4317 7.7184L11.5447 8.17761L11.1812 7.91957Z" fill="#FFD801"/>
<path fill-rule="evenodd" clip-rule="evenodd" d="M11.6023 6.23536L11.2266 6.49341L11.3535 6.03419L11.0198 5.74317H11.4556L11.6018 5.36841L11.7732 5.74317H12.1448L11.8528 6.03419L11.9659 6.49341L11.6023 6.23536Z" fill="#FFD801"/>
<path fill-rule="evenodd" clip-rule="evenodd" d="M6.22664 3.2881L6.60235 3.54614L6.47551 3.08693L6.8092 2.79591H6.37335L6.22717 2.42114L6.05576 2.79591H5.6842L5.97614 3.08693L5.86312 3.54614L6.22664 3.2881Z" fill="#FFD801"/>
<path fill-rule="evenodd" clip-rule="evenodd" d="M6.22664 9.18275L6.60235 9.4408L6.47551 8.98158L6.8092 8.69056H6.37335L6.22717 8.3158L6.05576 8.69056H5.6842L5.97614 8.98158L5.86312 9.4408L6.22664 9.18275Z" fill="#FFD801"/>
<path fill-rule="evenodd" clip-rule="evenodd" d="M4.96358 4.55116L5.33929 4.8092L5.21245 4.34999L5.54614 4.05897H5.11029L4.96411 3.6842L4.7927 4.05897H4.42114L4.71308 4.34999L4.60006 4.8092L4.96358 4.55116Z" fill="#FFD801"/>
<path fill-rule="evenodd" clip-rule="evenodd" d="M4.96358 7.91957L5.33929 8.17761L5.21245 7.7184L5.54614 7.42738H5.11029L4.96411 7.05261L4.7927 7.42738H4.42114L4.71308 7.7184L4.60006 8.17761L4.96358 7.91957Z" fill="#FFD801"/>
<path fill-rule="evenodd" clip-rule="evenodd" d="M4.54244 6.23536L4.91815 6.49341L4.7913 6.03419L5.125 5.74317H4.68915L4.54296 5.36841L4.37155 5.74317H4L4.29194 6.03419L4.17892 6.49341L4.54244 6.23536Z" fill="#FFD801"/>
</svg>