<svg width="20" height="15" viewBox="0 0 32 24" fill="none" xmlns="http://www.w3.org/2000/svg">
<mask id="mask0_968_1492" style="mask-type:alpha" maskUnits="userSpaceOnUse" x="0" y="0" width="32" height="24">
<rect width="32" height="24" fill="white"/>
</mask>
<g mask="url(#mask0_968_1492)">
<path fill-rule="evenodd" clip-rule="evenodd" d="M0 0V24H32V0H0Z" fill="#003399"/>
<mask id="mask1_968_1492" style="mask-type:alpha" maskUnits="userSpaceOnUse" x="0" y="0" width="32" height="24">
<path fill-rule="evenodd" clip-rule="evenodd" d="M0 0V24H32V0H0Z" fill="white"/>
</mask>
<g mask="url(#mask1_968_1492)">
<mask id="mask2_968_1492" style="mask-type:alpha" maskUnits="userSpaceOnUse" x="0" y="0" width="32" height="24">
<rect width="32" height="24" fill="white"/>
</mask>
<g mask="url(#mask2_968_1492)">
<path d="M-2.56323 22.2854L2.47846 25.2635L14.5 15.5L17.8191 14.2507L32.1597 3.23787L35.874 -1.18761L30.344 -2.18297L18.6456 7.3085L8.22956 13.7035L-2.56323 22.2854Z" fill="white"/>
<path d="M-0.5 24.3719L-0.0118275 26.1001L16.7642 12.2507L19.5 10L33.5402 -1.59881H31L14.9489 11.3865L13.5992 13L-0.5 24.3719Z" fill="#E40046"/>
<path d="M34.5631 22.2854L30.5214 25.2635L15.6808 14.2507L-0.159817 3.23787L-3.87415 -1.18761L1.65593 -2.18297L13.3543 7.3085L23.7703 13.7035L34.5631 22.2854Z" fill="white"/>
<path d="M34.3229 23.7829L33.5 25.5111L26.3566 19.5814L19.2132 13.6518L13.2129 12.3267L-4.23151 -1.17246H-1.43464L16 12.0063L21.8713 13.5952L34.3229 23.7829Z" fill="#E40046"/>
<mask id="path-9-inside-1_968_1492" fill="white">
<path fill-rule="evenodd" clip-rule="evenodd" d="M19.7777 -2H12.2222V8H-1.97253V16H12.2222V26H19.7777V16H34.0275V8H19.7777V-2Z"/>
</mask>
<path fill-rule="evenodd" clip-rule="evenodd" d="M19.7777 -2H12.2222V8H-1.97253V16H12.2222V26H19.7777V16H34.0275V8H19.7777V-2Z" fill="#E40046"/>
<path d="M12.2222 -2V-3.5H10.7222V-2H12.2222ZM19.7777 -2H21.2777V-3.5H19.7777V-2ZM12.2222 8V9.5H13.7222V8H12.2222ZM-1.97253 8V6.5H-3.47253V8H-1.97253ZM-1.97253 16H-3.47253V17.5H-1.97253V16ZM12.2222 16H13.7222V14.5H12.2222V16ZM12.2222 26H10.7222V27.5H12.2222V26ZM19.7777 26V27.5H21.2777V26H19.7777ZM19.7777 16V14.5H18.2777V16H19.7777ZM34.0275 16V17.5H35.5275V16H34.0275ZM34.0275 8H35.5275V6.5H34.0275V8ZM19.7777 8H18.2777V9.5H19.7777V8ZM12.2222 -0.5H19.7777V-3.5H12.2222V-0.5ZM13.7222 8V-2H10.7222V8H13.7222ZM-1.97253 9.5H12.2222V6.5H-1.97253V9.5ZM-0.472534 16V8H-3.47253V16H-0.472534ZM12.2222 14.5H-1.97253V17.5H12.2222V14.5ZM13.7222 26V16H10.7222V26H13.7222ZM19.7777 24.5H12.2222V27.5H19.7777V24.5ZM18.2777 16V26H21.2777V16H18.2777ZM34.0275 14.5H19.7777V17.5H34.0275V14.5ZM32.5275 8V16H35.5275V8H32.5275ZM19.7777 9.5H34.0275V6.5H19.7777V9.5ZM18.2777 -2V8H21.2777V-2H18.2777Z" fill="white" mask="url(#path-9-inside-1_968_1492)"/>
</g>
</g>
</g>
</svg>
