<svg width="20" height="15" viewBox="0 0 16 12" fill="none" xmlns="http://www.w3.org/2000/svg">
<mask id="mask0_1086_6319" style="mask-type:alpha" maskUnits="userSpaceOnUse" x="0" y="0" width="16" height="12">
<rect width="16" height="12" fill="white"/>
</mask>
<g mask="url(#mask0_1086_6319)">
<path fill-rule="evenodd" clip-rule="evenodd" d="M0 0H16V12H0V0Z" fill="#F7FCFF"/>
<path fill-rule="evenodd" clip-rule="evenodd" d="M0 7.33337V8.33337H16V7.33337H0Z" fill="#E40046"/>
<path fill-rule="evenodd" clip-rule="evenodd" d="M0 9.16663V10.1666H16V9.16663H0Z" fill="#E40046"/>
<path fill-rule="evenodd" clip-rule="evenodd" d="M0 3.66663V4.66663H16V3.66663H0Z" fill="#E40046"/>
<path fill-rule="evenodd" clip-rule="evenodd" d="M0 11V12H16V11H0Z" fill="#E40046"/>
<path fill-rule="evenodd" clip-rule="evenodd" d="M0 5.5V6.5H16V5.5H0Z" fill="#E40046"/>
<path fill-rule="evenodd" clip-rule="evenodd" d="M0 0V1H16V0H0Z" fill="#E40046"/>
<path fill-rule="evenodd" clip-rule="evenodd" d="M0 1.83337V2.83337H16V1.83337H0Z" fill="#E40046"/>
<rect width="10" height="6.5" fill="#003399"/>
<path fill-rule="evenodd" clip-rule="evenodd" d="M2.86111 1.46935L2.49817 1.7238L2.6207 1.27099L2.29834 0.984036H2.71938L2.8606 0.614502L3.02618 0.984036H3.38511L3.10309 1.27099L3.21227 1.7238L2.86111 1.46935ZM0.861166 1.46938L0.498227 1.72383L0.620759 1.27102L0.298401 0.984066H0.719445L0.860659 0.614532L1.02624 0.984066H1.38517L1.10315 1.27102L1.21234 1.72383L0.861166 1.46938ZM4.49817 1.7238L4.86111 1.46935L5.21227 1.7238L5.10309 1.27099L5.38511 0.984036H5.02618L4.8606 0.614502L4.71938 0.984036H4.29834L4.6207 1.27099L4.49817 1.7238ZM6.86111 1.46935L6.49817 1.7238L6.6207 1.27099L6.29834 0.984036H6.71938L6.8606 0.614502L7.02618 0.984036H7.38511L7.10309 1.27099L7.21227 1.7238L6.86111 1.46935ZM0.498166 3.7238L0.861105 3.46935L1.21227 3.7238L1.10309 3.27099L1.38511 2.98404H1.02618L0.860598 2.6145L0.719383 2.98404H0.29834L0.620698 3.27099L0.498166 3.7238ZM2.86111 3.46935L2.49817 3.7238L2.6207 3.27099L2.29834 2.98404H2.71938L2.8606 2.6145L3.02618 2.98404H3.38511L3.10309 3.27099L3.21227 3.7238L2.86111 3.46935ZM4.49817 3.7238L4.86111 3.46935L5.21227 3.7238L5.10309 3.27099L5.38511 2.98404H5.02618L4.8606 2.6145L4.71938 2.98404H4.29834L4.6207 3.27099L4.49817 3.7238ZM6.86111 3.46935L6.49817 3.7238L6.6207 3.27099L6.29834 2.98404H6.71938L6.8606 2.6145L7.02618 2.98404H7.38511L7.10309 3.27099L7.21227 3.7238L6.86111 3.46935ZM0.498166 5.7238L0.861105 5.46935L1.21227 5.7238L1.10309 5.27099L1.38511 4.98404H1.02618L0.860598 4.6145L0.719383 4.98404H0.29834L0.620698 5.27099L0.498166 5.7238ZM2.86111 5.46935L2.49817 5.7238L2.6207 5.27099L2.29834 4.98404H2.71938L2.8606 4.6145L3.02618 4.98404H3.38511L3.10309 5.27099L3.21227 5.7238L2.86111 5.46935ZM4.49817 5.7238L4.86111 5.46935L5.21227 5.7238L5.10309 5.27099L5.38511 4.98404H5.02618L4.8606 4.6145L4.71938 4.98404H4.29834L4.6207 5.27099L4.49817 5.7238ZM6.86111 5.46935L6.49817 5.7238L6.6207 5.27099L6.29834 4.98404H6.71938L6.8606 4.6145L7.02618 4.98404H7.38511L7.10309 5.27099L7.21227 5.7238L6.86111 5.46935ZM8.49817 1.7238L8.8611 1.46935L9.21227 1.7238L9.10309 1.27099L9.38511 0.984036H9.02618L8.8606 0.614502L8.71938 0.984036H8.29834L8.6207 1.27099L8.49817 1.7238ZM8.8611 3.46935L8.49817 3.7238L8.6207 3.27099L8.29834 2.98404H8.71938L8.8606 2.6145L9.02618 2.98404H9.38511L9.10309 3.27099L9.21227 3.7238L8.8611 3.46935ZM8.49817 5.7238L8.8611 5.46935L9.21227 5.7238L9.10309 5.27099L9.38511 4.98404H9.02618L8.8606 4.6145L8.71938 4.98404H8.29834L8.6207 5.27099L8.49817 5.7238ZM1.86111 2.46935L1.49817 2.7238L1.6207 2.27099L1.29834 1.98404H1.71938L1.8606 1.6145L2.02618 1.98404H2.38511L2.10309 2.27099L2.21227 2.7238L1.86111 2.46935ZM3.49817 2.7238L3.86111 2.46935L4.21227 2.7238L4.10309 2.27099L4.38511 1.98404H4.02618L3.8606 1.6145L3.71938 1.98404H3.29834L3.6207 2.27099L3.49817 2.7238ZM5.86111 2.46935L5.49817 2.7238L5.6207 2.27099L5.29834 1.98404H5.71938L5.8606 1.6145L6.02618 1.98404H6.38511L6.10309 2.27099L6.21227 2.7238L5.86111 2.46935ZM1.49817 4.7238L1.86111 4.46935L2.21227 4.7238L2.10309 4.27099L2.38511 3.98404H2.02618L1.8606 3.6145L1.71938 3.98404H1.29834L1.6207 4.27099L1.49817 4.7238ZM3.86111 4.46935L3.49817 4.7238L3.6207 4.27099L3.29834 3.98404H3.71938L3.8606 3.6145L4.02618 3.98404H4.38511L4.10309 4.27099L4.21227 4.7238L3.86111 4.46935ZM5.49817 4.7238L5.86111 4.46935L6.21227 4.7238L6.10309 4.27099L6.38511 3.98404H6.02618L5.8606 3.6145L5.71938 3.98404H5.29834L5.6207 4.27099L5.49817 4.7238ZM7.86111 2.46935L7.49817 2.7238L7.6207 2.27099L7.29834 1.98404H7.71938L7.8606 1.6145L8.02618 1.98404H8.38511L8.10309 2.27099L8.21227 2.7238L7.86111 2.46935ZM7.49817 4.7238L7.86111 4.46935L8.21227 4.7238L8.10309 4.27099L8.38511 3.98404H8.02618L7.8606 3.6145L7.71938 3.98404H7.29834L7.6207 4.27099L7.49817 4.7238Z" fill="#F7FCFF"/>
</g>
</svg>
